<svg xmlns="http://www.w3.org/2000/svg" viewBox="0 0 64 64">
  <defs>
    <linearGradient id="bg" x1="0%" x2="100%" y1="0%" y2="100%">
      <stop offset="0%" stop-color="#fff4de" />
      <stop offset="100%" stop-color="#efd7a6" />
    </linearGradient>
    <linearGradient id="ball" x1="0%" x2="100%" y1="0%" y2="100%">
      <stop offset="0%" stop-color="#1f4aa8" />
      <stop offset="100%" stop-color="#0d2663" />
    </linearGradient>
  </defs>
  <rect width="64" height="64" rx="16" fill="url(#bg)" />
  <circle cx="32" cy="32" r="19" fill="url(#ball)" />
  <path
    d="M32 13c5.8 0 11 2.6 14.5 6.7-3.2 2.3-5.1 6.1-5.1 10.3s1.9 8 5.1 10.3A19 19 0 0 1 32 51"
    fill="none"
    stroke="#f7f2e7"
    stroke-linecap="round"
    stroke-width="2.8"
  />
  <path
    d="M32 13a19 19 0 0 0-14.5 6.7c3.2 2.3 5.1 6.1 5.1 10.3s-1.9 8-5.1 10.3A19 19 0 0 0 32 51"
    fill="none"
    stroke="#f7f2e7"
    stroke-linecap="round"
    stroke-width="2.8"
  />
  <path
    d="M27 24h3.6v15H27zm6.3 0h3.7c3.1 0 5 1.7 5 4.6 0 2.9-1.9 4.7-5.1 4.7H35v5.7h-1.7zM35 26v5.8h1.8c2 0 3.2-1 3.2-2.9 0-1.8-1.2-2.9-3.2-2.9zm-14.8-2h1.7v13.4h6.6V39h-8.3z"
    fill="#f8f4ea"
  />
</svg>
